# xmcd
#
# Track frame offsets:
#	150
#	18834
#	37433
#	59273
#	77112
#	99613
#	119870
#	139351
#	161288
#	181087
#	201041
#	218292
#	240081
#	258978
#	281614
#
# Disc length: 4050 seconds
#
# Revision: 2
# Processed by: cddbd v1.4PL0 Copyright (c) Steve Scherf et al.
# Submitted via: EZCDDA 4.3.2
#
DISCID=cd0fd00f
DTITLE=苏永康 - 爱一个人好难
DYEAR=1900
DGENRE=
TTITLE0=我为你伤心
TTITLE1=我不是爱过就算的人
TTITLE2=恒星
TTITLE3=爱得正好
TTITLE4=爱一个人好难
TTITLE5=忘了怎么说我爱你
TTITLE6=战争
TTITLE7=你变了
TTITLE8=爱到忘我是幸福
TTITLE9=从哪一天算起
TTITLE10=真话伤人很痛
TTITLE11=十分钟后离开你
TTITLE12=饥饿
TTITLE13=让懂你的人爱你
TTITLE14=一个人不如两个人
EXTD=
EXTT0=
EXTT1=
EXTT2=
EXTT3=
EXTT4=
EXTT5=
EXTT6=
EXTT7=
EXTT8=
EXTT9=
EXTT10=
EXTT11=
EXTT12=
EXTT13=
EXTT14=
PLAYORDER=
